<?xml version="1.0" encoding="iso-8859-1"?>
<!-- Generator: Adobe Illustrator 16.0.0, SVG Export Plug-In . SVG Version: 6.00 Build 0)  -->
<!DOCTYPE svg PUBLIC "-//W3C//DTD SVG 1.1//EN" "http://www.w3.org/Graphics/SVG/1.1/DTD/svg11.dtd">
<svg version="1.1" id="Capa_1" xmlns="http://www.w3.org/2000/svg" xmlns:xlink="http://www.w3.org/1999/xlink" x="0px" y="0px"
	 width="489.708px" height="489.708px" viewBox="0 0 489.708 489.708" style="enable-background:new 0 0 489.708 489.708;"
	 xml:space="preserve">
<g>
	<g id="Layer_7_3_">
		<path d="M307.429,3.099c-4.969-3.063-11.167-3.325-16.392-0.719l-190.21,95.313c-5.699,2.862-9.304,8.695-9.304,15.064v4.92
			H12.471c-6.89,0-12.471,5.583-12.471,12.47v213.56c0,6.881,5.581,12.471,12.471,12.471h79.052v9.261
			c0,6.096,3.285,11.704,8.598,14.688l190.21,106.828c2.569,1.437,5.407,2.155,8.257,2.155c2.947,0,5.876-0.773,8.507-2.295
			c5.151-3.021,8.336-8.562,8.336-14.541V17.438C315.431,11.599,312.41,6.161,307.429,3.099z M281.745,443.484l-156.528-87.897
			V123.158l156.528-78.44V443.484z M486.377,295.39c4.409,4.409,4.409,11.558,0,15.967c-2.21,2.21-5.091,3.3-7.989,3.3
			c-2.886,0-5.771-1.097-7.977-3.3l-48.944-48.945l-48.938,48.945c-2.21,2.21-5.097,3.3-7.982,3.3c-2.887,0-5.779-1.097-7.978-3.3
			c-4.408-4.409-4.408-11.558,0-15.967l48.944-48.95l-48.944-48.938c-4.408-4.415-4.408-11.563,0-15.978
			c4.409-4.409,11.558-4.409,15.966,0l48.945,48.945l48.95-48.945c4.409-4.409,11.563-4.409,15.972,0s4.408,11.563,0,15.978
			l-48.95,48.938L486.377,295.39z"/>
	</g>
</g>
<g>
</g>
<g>
</g>
<g>
</g>
<g>
</g>
<g>
</g>
<g>
</g>
<g>
</g>
<g>
</g>
<g>
</g>
<g>
</g>
<g>
</g>
<g>
</g>
<g>
</g>
<g>
</g>
<g>
</g>
</svg>
